<svg xmlns="http://www.w3.org/2000/svg" width="16" height="16">
  <path d="M 2,1 C 0.892,1 0,1.892 0,3 v 10 c 0,1.108 0.892,2 2,2 h 8 V 13 H 2 V 9 9.7323003 L 2.3535156,9.3535156 2.8632812,8.84375 l 1.1875,2.375 1.8398438,-4.5976562 0.6582031,2.6347656 1.5878907,1.5878906 1,-2 L 9.7929688,9.5 H 14 V 10 h 2 V 3 C 16,1.892 15.108,1 14,1 Z m 0,2 h 12 v 5.5 h -3.792969 l -1.3437498,-1.34375 -1,2 L 7.4511719,8.7441406 6.109375,3.3789062 3.9492188,8.78125 3.1367188,7.15625 2,8.2929688 Z m 9,8 v 5 h 5 v -5 z m 1,1 h 1 v 1 h 1 v -1 h 1 v 2 h -1 v 1 h -1 v -1 h -1 z" fill="#c0bfbc" />
</svg>
