<?xml version="1.0" encoding="UTF-8"?>
<svg version="1.0" viewBox="0 0 128 128" xmlns="http://www.w3.org/2000/svg" xmlns:xlink="http://www.w3.org/1999/xlink">
<defs>
<linearGradient id="b" x1="8" x2="120" y1="64" y2="64" gradientTransform="translate(-3.75e-7 -4)" gradientUnits="userSpaceOnUse">
<stop stop-color="#deddda" offset="0"/>
<stop stop-color="#f6f5f4" offset="1"/>
</linearGradient>
<linearGradient id="a" x1="8" x2="120" y1="72" y2="72" gradientTransform="translate(-3.75e-7 -4)" gradientUnits="userSpaceOnUse">
<stop stop-color="#c0bfbc" offset="0"/>
<stop stop-color="#deddda" offset=".034243"/>
<stop stop-color="#c0bfbc" offset=".071429"/>
<stop stop-color="#c0bfbc" offset=".92857"/>
<stop stop-color="#deddda" offset=".96429"/>
<stop stop-color="#c0bfbc" offset="1"/>
</linearGradient>
</defs>
<path d="m16 20c-4.432 0-8 3.568-8 8v80c0 4.432 3.568 8 8 8h96c4.432 0 8-3.568 8-8v-80c0-4.432-3.568-8-8-8zm0 8h96v80h-96z" fill="url(#a)"/>
<path d="m16 12c-4.432 0-8 3.568-8 8v80c0 4.432 3.568 8 8 8h96c4.432 0 8-3.568 8-8v-80c0-4.432-3.568-8-8-8zm0 8h96v80h-96z" fill="url(#b)"/>
<rect x="16" y="20" width="96" height="80" fill="#241f31"/>
<rect x="20" y="24" width="88" height="72" fill="#33d17a"/>
<path d="m75.357 33.01-8 40-6.627-16.568-4.1816 4.1816l-4.3008-8.5996-7.5137 11.268-8.2246-28.785-13.059 26.117-3.4512-3.4512v9.1484l0.87305-2.6191 3.6758 3.6758 10.941-21.883 7.7754 27.213 8.4863-12.73 3.6992 7.4004 3.8184-3.8184 9.373 23.432 8-40 6.0039 15.01h25.354v-4h-22.646z" fill="#26a269"/>
<path d="m56 96 16-72h-52v72z" fill="#fff" opacity=".2"/>
</svg>
